<?xml version="1.0" standalone="no"?>
<!DOCTYPE svg PUBLIC "-//W3C//DTD SVG 20010904//EN"
 "http://www.w3.org/TR/2001/REC-SVG-20010904/DTD/svg10.dtd">
<svg version="1.0" xmlns="http://www.w3.org/2000/svg"
 width="576.000000pt" height="871.000000pt" viewBox="0 0 576.000000 871.000000"
 preserveAspectRatio="xMidYMid meet">

<g transform="translate(0.000000,871.000000) scale(0.100000,-0.100000)"
fill="#000000" stroke="none">
<path d="M1996 8518 c-40 -57 -11 -89 115 -123 112 -31 209 -78 402 -193 l128
-76 -128 -64 c-360 -178 -600 -408 -657 -627 -19 -71 -7 -174 28 -250 47 -102
158 -198 315 -274 46 -22 86 -42 88 -45 2 -2 -24 -21 -59 -42 -193 -116 -283
-186 -572 -448 -184 -167 -252 -225 -339 -286 l-49 -35 -20 30 c-11 17 -67 75
-123 130 -56 55 -122 127 -146 160 -68 94 -203 234 -287 298 -121 92 -291 201
-362 231 -82 35 -105 56 -131 125 -41 107 -36 355 12 546 25 101 103 262 164
340 29 39 70 75 113 102 37 23 83 55 102 71 54 46 96 68 211 110 175 66 209
88 209 141 0 32 -35 61 -75 61 -89 0 -363 -137 -534 -268 -116 -89 -271 -298
-271 -367 0 -16 -11 -51 -25 -77 -45 -85 -65 -196 -65 -366 0 -173 16 -272 59
-367 16 -33 39 -70 52 -82 13 -12 89 -56 169 -99 80 -42 174 -97 210 -123 92
-64 243 -212 308 -301 30 -41 88 -110 131 -152 42 -43 106 -108 143 -145 l66
-68 -125 -105 c-175 -147 -316 -296 -402 -425 -80 -120 -174 -301 -214 -412
-60 -166 -80 -540 -39 -708 47 -189 87 -283 144 -337 15 -15 28 -34 28 -43 0
-25 42 -101 127 -230 157 -236 276 -380 493 -595 161 -160 233 -240 327 -365
66 -88 171 -214 232 -280 165 -177 371 -426 414 -503 45 -78 130 -192 181
-241 20 -19 36 -37 36 -40 0 -4 -36 -44 -80 -91 -121 -128 -243 -315 -264
-405 -4 -16 -32 -73 -61 -126 -78 -138 -115 -220 -115 -254 0 -16 -8 -49 -17
-73 -16 -42 -17 -43 -32 -24 -64 78 -210 270 -226 297 -11 17 -37 53 -58 79
-32 38 -44 46 -73 46 -52 0 -74 -28 -74 -95 0 -45 5 -60 28 -87 52 -61 70 -93
102 -186 18 -51 48 -117 66 -147 18 -31 42 -80 53 -111 36 -95 62 -137 120
-196 31 -32 74 -77 97 -101 57 -62 142 -117 179 -117 51 1 94 47 108 117 9 43
22 71 49 102 21 24 44 65 53 91 21 64 97 150 170 193 131 76 262 192 331 292
47 69 45 113 -7 140 -46 24 -80 18 -164 -32 -44 -25 -132 -72 -195 -104 -78
-39 -136 -76 -180 -116 -36 -32 -102 -82 -147 -111 l-83 -52 0 33 c0 44 38
153 85 247 21 41 46 99 56 129 10 29 46 97 79 150 32 53 70 122 84 152 13 30
34 60 47 67 13 7 42 40 64 73 22 33 51 67 65 76 14 9 37 31 52 48 16 18 65 58
110 89 46 31 112 81 147 110 78 65 265 182 419 262 63 32 134 77 159 98 25 22
68 50 95 63 118 54 387 251 479 350 111 118 247 324 293 443 140 363 260 774
286 984 39 303 -42 962 -162 1326 -36 110 -61 163 -132 280 -29 47 -63 110
-75 140 -35 82 -79 144 -171 236 l-82 82 39 25 c79 50 141 77 248 108 153 43
248 90 275 134 12 20 37 47 55 61 19 14 45 44 59 67 23 40 64 81 205 206 34
29 86 91 117 137 64 96 144 270 144 313 0 26 9 34 87 77 182 102 369 261 452
385 65 97 85 160 86 264 0 82 -3 96 -33 156 -39 81 -149 189 -244 243 -381
213 -1033 271 -1743 156 -264 -43 -415 -80 -662 -161 l-153 -51 -27 20 c-48
32 -400 232 -456 257 -60 28 -230 75 -269 75 -16 0 -33 -9 -42 -22z m2694
-202 c330 -46 574 -135 707 -259 86 -81 107 -123 108 -212 0 -108 -40 -183
-169 -310 -91 -91 -229 -196 -312 -238 l-32 -16 -16 44 c-44 113 -137 214
-261 280 -43 23 -59 25 -164 25 -173 0 -252 -13 -532 -89 -253 -69 -381 -111
-460 -152 -43 -22 -265 -109 -277 -109 -4 0 -8 31 -9 69 -4 161 -158 481 -330
687 l-51 61 111 36 c320 102 605 160 937 192 188 17 594 13 750 -9z m-1891
-322 c106 -114 292 -441 326 -569 18 -72 20 -149 2 -163 -7 -6 -46 -20 -87
-31 -126 -34 -254 -91 -481 -213 l-126 -68 -69 24 c-193 65 -349 184 -385 293
-20 62 -7 161 32 234 65 123 244 279 469 409 67 39 256 129 271 130 4 0 25
-21 48 -46z m1868 -507 c83 -44 180 -163 197 -243 l7 -32 -118 -49 c-406 -172
-922 -284 -1415 -309 l-138 -7 0 25 c0 47 38 174 67 223 27 46 33 50 110 76
46 15 127 50 180 77 112 56 190 86 353 136 155 47 272 76 309 76 17 0 52 7 78
17 102 35 310 41 370 10z m-1543 -396 c-6 -14 -36 -138 -50 -210 l-5 -24 -122
6 c-67 4 -149 11 -182 17 -33 6 -76 13 -95 16 l-35 6 50 26 c124 64 418 190
432 185 9 -3 12 -12 7 -22z m1722 -38 c-4 -10 -28 -56 -54 -103 -39 -70 -71
-109 -188 -225 -78 -77 -155 -161 -172 -186 -17 -25 -57 -70 -90 -101 -62 -57
-92 -71 -262 -122 -49 -14 -117 -45 -160 -72 -122 -75 -183 -102 -302 -134
-71 -19 -159 -54 -238 -92 -115 -56 -437 -174 -448 -163 -3 2 14 71 36 152 23
81 60 222 82 313 23 91 59 219 82 286 l40 120 212 12 c236 13 377 30 576 68
276 52 546 129 765 218 125 51 130 52 121 29z m-2189 -278 c78 -14 192 -28
252 -31 60 -4 115 -10 121 -14 9 -5 -1 -46 -33 -146 -25 -77 -59 -206 -77
-289 -18 -82 -43 -172 -56 -200 -12 -27 -30 -79 -39 -115 -24 -97 -65 -219
-76 -226 -20 -12 -61 -108 -56 -131 3 -14 -13 -71 -38 -136 -141 -372 -207
-644 -236 -972 -6 -77 -15 -144 -19 -148 -13 -15 -87 79 -158 199 -79 135
-242 372 -312 454 -80 95 -101 127 -131 200 -15 39 -49 99 -73 134 -25 34 -59
92 -75 128 -16 36 -91 157 -166 268 -75 112 -133 206 -128 210 4 4 51 38 103
77 95 71 220 176 337 284 92 85 279 239 353 290 54 38 223 142 305 188 11 6
29 9 40 6 11 -3 84 -17 162 -30z m1103 -769 c0 -8 29 -41 65 -73 88 -78 137
-151 207 -307 32 -72 72 -148 89 -169 41 -51 64 -105 93 -223 106 -422 165
-928 138 -1192 -16 -153 -62 -349 -111 -471 -21 -54 -64 -181 -95 -282 -31
-101 -74 -221 -96 -267 -48 -101 -122 -217 -148 -231 -10 -5 -46 -45 -79 -88
-80 -103 -147 -165 -220 -201 -32 -17 -97 -58 -143 -93 -47 -35 -105 -73 -130
-85 -25 -12 -61 -35 -81 -51 -20 -16 -86 -55 -145 -87 -60 -31 -150 -86 -199
-122 -50 -36 -112 -77 -140 -91 -27 -14 -88 -56 -135 -93 -83 -65 -120 -90
-137 -90 -12 0 -85 93 -208 265 -141 197 -356 457 -475 575 -53 52 -152 169
-220 260 -96 127 -169 209 -320 360 -137 137 -215 223 -260 289 -36 52 -83
117 -105 145 -101 128 -288 428 -300 482 -4 16 -22 81 -41 144 -59 205 -65
312 -29 560 32 216 216 541 416 735 140 136 291 266 304 262 14 -5 206 -313
261 -422 26 -49 69 -123 96 -163 27 -40 64 -106 83 -148 20 -44 59 -104 95
-145 32 -38 72 -91 86 -117 15 -26 47 -72 72 -102 24 -30 76 -109 114 -175
107 -183 132 -219 199 -282 72 -68 99 -116 99 -175 0 -108 110 -162 158 -78 9
17 21 30 26 30 5 0 18 7 28 17 26 23 23 69 -7 99 -24 24 -25 29 -25 170 0 213
57 586 102 664 11 19 35 93 53 166 18 72 44 153 58 180 13 27 28 65 31 84 17
86 58 181 90 205 43 33 173 91 245 110 32 8 139 49 237 91 166 70 362 142 392
144 6 0 12 -6 12 -14z"/>
<path d="M2604 1506 c-3 -20 -15 -53 -25 -73 -27 -53 -25 -89 6 -109 59 -39
101 31 76 124 -6 25 -20 56 -31 69 l-19 24 -7 -35z"/>
<path d="M2580 1273 c0 -8 -4 -11 -10 -8 -11 7 -11 7 -13 -79 -2 -72 18 -106
63 -106 32 0 50 23 50 62 0 36 -55 145 -74 145 -9 0 -16 -7 -16 -14z"/>
<path d="M2643 738 c-4 -7 -6 -24 -4 -37 2 -18 -1 -22 -13 -18 -14 6 -16 -5
-16 -83 0 -80 2 -90 21 -100 31 -17 62 -8 76 21 13 27 9 58 -28 192 -10 38
-22 46 -36 25z"/>
<path d="M2670 281 c0 -17 -9 -45 -20 -64 -11 -18 -23 -61 -26 -95 -7 -59 -6
-61 19 -67 70 -18 95 23 77 129 -14 81 -14 85 -25 109 -11 27 -25 20 -25 -12z"/>
</g>
</svg>
